<svg width="76" height="76" viewBox="0 0 76 76" fill="none" xmlns="http://www.w3.org/2000/svg">
<path d="M42.1357 43.5806V37.7966H37.9832V45.5085H40.2077C41.5425 45.5085 42.1357 44.6187 42.1357 43.5806Z" fill="#EDEDED"/>
<path d="M24.765 54.2586L28.0277 36.6102H38.854V56.4832C38.854 57.8179 37.8159 58.7078 36.6294 58.7078H26.3963C25.0616 58.7078 24.3201 56.6315 24.765 54.2586Z" fill="#D1D1D1"/>
<path d="M27.1755 20H53.8705C56.54 20 58.9129 22.9661 57.2815 25.1907L45.7137 38.9831H27.1755C16.3491 39.2797 16.2008 20 27.1755 20Z" fill="#EDEDED"/>
<mask id="mask0_45_109" style="mask-type:alpha" maskUnits="userSpaceOnUse" x="19" y="20" width="39" height="19">
<path d="M27.1755 20H53.8705C56.54 20 58.9129 22.9661 57.2815 25.1907L45.7137 38.9831H27.1755C16.3491 39.2797 16.2008 20 27.1755 20Z" fill="white"/>
</mask>
<g mask="url(#mask0_45_109)">
<path d="M32.9407 40.7628L48.6611 19.7034L63.1951 20L47.7713 40.7628H32.9407Z" fill="#D9D9D9"/>
</g>
<rect x="2.33333" y="2.33333" width="71.3333" height="71.3333" rx="11" stroke="#EDEDED" stroke-width="4.66667"/>
</svg>
