<svg width="76" height="76" viewBox="0 0 76 76" fill="none" xmlns="http://www.w3.org/2000/svg">
<path d="M21 33.2778L38 19L55 33.2778V52.6364C55 57.1212 44.5385 57.1212 44.5385 52.6364V47C44.5385 39.5212 31.4615 39.5212 31.4615 47V52.6364C31.4615 57.1212 21 57.1212 21 52.6364V33.2778Z" fill="#5F696D" stroke="#5F696D" stroke-width="2"/>
<rect x="2.33333" y="2.33333" width="71.3333" height="71.3333" rx="11" stroke="#414141" stroke-width="4.66667"/>
<mask id="mask0_45_118" style="mask-type:alpha" maskUnits="userSpaceOnUse" x="20" y="17" width="36" height="40">
<path d="M21 33.2778L38 19L55 33.2778V52.6364C55 57.1212 44.5385 57.1212 44.5385 52.6364V47C44.5385 39.5212 31.4615 39.5212 31.4615 47V52.6364C31.4615 57.1212 21 57.1212 21 52.6364V33.2778Z" fill="#313638" stroke="#EDEDED" stroke-width="2"/>
</mask>
<g mask="url(#mask0_45_118)">
<rect x="35" y="56.5349" width="38" height="40" transform="rotate(-61.945 35 56.5349)" fill="#D9D9D9"/>
</g>
</svg>
