<svg width="76" height="76" viewBox="0 0 76 76" fill="none" xmlns="http://www.w3.org/2000/svg">
<path fill-rule="evenodd" clip-rule="evenodd" d="M33 62C35.7614 62 38 59.7614 38 57C38 54.2386 35.7614 52 33 52C30.2386 52 28 54.2386 28 57C28 59.7614 30.2386 62 33 62ZM33 60C34.6569 60 36 58.6569 36 57C36 55.3431 34.6569 54 33 54C31.3431 54 30 55.3431 30 57C30 58.6569 31.3431 60 33 60Z" fill="#313638"/>
<rect x="29.9258" y="27.9595" width="17.7931" height="10.1389" rx="2.49275" transform="rotate(-17 29.9258 27.9595)" fill="#313638"/>
<rect x="33.9042" y="40.3711" width="24.3293" height="11.0497" rx="2.49275" transform="rotate(-17 33.9042 40.3711)" fill="#313638"/>
<rect x="21.8115" y="20.9778" width="3.17064" height="30.1141" transform="rotate(-17 21.8115 20.9778)" fill="#313638"/>
<rect x="40.0223" y="53.1273" width="20.626" height="2.98655" transform="rotate(-17 40.0223 53.1273)" fill="#313638"/>
<rect x="14" y="20" width="11" height="3" fill="#313638"/>
<rect x="2.33333" y="2.33333" width="71.3333" height="71.3333" rx="11" stroke="#313638" stroke-width="4.66667"/>
</svg>
