<svg width="76" height="76" viewBox="0 0 76 76" fill="none" xmlns="http://www.w3.org/2000/svg">
<path fill-rule="evenodd" clip-rule="evenodd" d="M33.0001 62C35.7615 62 38.0001 59.7614 38.0001 57C38.0001 54.2386 35.7615 52 33.0001 52C30.2386 52 28.0001 54.2386 28.0001 57C28.0001 59.7614 30.2386 62 33.0001 62ZM33.0001 60C34.6569 60 36.0001 58.6569 36.0001 57C36.0001 55.3431 34.6569 54 33.0001 54C31.3432 54 30.0001 55.3431 30.0001 57C30.0001 58.6569 31.3432 60 33.0001 60Z" fill="#D9D9D9"/>
<rect x="29.9258" y="27.9595" width="17.7931" height="10.1389" rx="2.49275" transform="rotate(-17 29.9258 27.9595)" fill="#D9D9D9"/>
<rect x="33.9041" y="40.3711" width="24.3293" height="11.0497" rx="2.49275" transform="rotate(-17 33.9041 40.3711)" fill="#D9D9D9"/>
<rect x="21.8115" y="20.9778" width="3.17064" height="30.1141" transform="rotate(-17 21.8115 20.9778)" fill="#D9D9D9"/>
<rect x="40.0224" y="53.1273" width="20.626" height="2.98655" transform="rotate(-17 40.0224 53.1273)" fill="#D9D9D9"/>
<rect x="14" y="20" width="11" height="3" fill="#D9D9D9"/>
<rect x="2.33333" y="2.33333" width="71.3333" height="71.3333" rx="11" stroke="#EDEDED" stroke-width="4.66667"/>
</svg>
