<svg width="76" height="76" viewBox="0 0 76 76" fill="none" xmlns="http://www.w3.org/2000/svg">
<rect x="2.33333" y="2.33333" width="71.3333" height="71.3333" rx="11" stroke="#EDEDED" stroke-width="4.66667"/>
<rect x="21.9996" y="20.6669" width="12" height="5.33333" rx="1.33333" fill="#F5AC72"/>
<rect x="40.6665" y="20.6669" width="12" height="5.33333" rx="1.33333" fill="#F5AC72"/>
<rect x="11.9993" y="38.0002" width="7.33333" height="5.33333" rx="1.33333" fill="#313638"/>
<rect x="56.666" y="38.0002" width="7.33333" height="5.33333" rx="1.33333" fill="#313638"/>
<path fill-rule="evenodd" clip-rule="evenodd" d="M59.5562 40.6667C59.5562 47.2941 54.1836 52.6667 47.5562 52.6667C46.2367 52.6667 44.967 52.4537 43.7795 52.0603C45.0269 50.6853 45.9597 49.0197 46.4643 47.1771C46.8195 47.2363 47.1843 47.2671 47.5562 47.2671C51.2013 47.2671 54.1562 44.3121 54.1562 40.6671C54.1562 37.022 51.2013 34.0671 47.5562 34.0671C45.9809 34.0671 44.5345 34.619 43.3998 35.54C42.0884 34.2208 40.4724 33.2049 38.6661 32.6064C40.8615 30.1864 44.0314 28.6667 47.5562 28.6667C54.1836 28.6667 59.5562 34.0393 59.5562 40.6667Z" fill="#313638"/>
<path fill-rule="evenodd" clip-rule="evenodd" d="M16.666 40.6667C16.666 34.0393 22.0386 28.6667 28.666 28.6667C29.9854 28.6667 31.255 28.8797 32.4424 29.273C31.1948 30.6481 30.2619 32.314 29.7573 34.1568C29.4022 34.0977 29.0374 34.0669 28.6655 34.0669C25.0204 34.0669 22.0655 37.0218 22.0655 40.6669C22.0655 44.312 25.0204 47.2669 28.6655 47.2669C30.2409 47.2669 31.6875 46.7149 32.8222 45.7937C34.1337 47.1128 35.7497 48.1288 37.556 48.7271C35.3606 51.1471 32.1908 52.6667 28.666 52.6667C22.0386 52.6667 16.666 47.2942 16.666 40.6667Z" fill="#313638"/>
<mask id="mask0_45_137" style="mask-type:alpha" maskUnits="userSpaceOnUse" x="16" y="28" width="25" height="25">
<path fill-rule="evenodd" clip-rule="evenodd" d="M28.6658 52.6667C35.2932 52.6667 40.6658 47.2942 40.6658 40.6667C40.6658 34.0393 35.2932 28.6667 28.6658 28.6667C22.0384 28.6667 16.6658 34.0393 16.6658 40.6667C16.6658 47.2942 22.0384 52.6667 28.6658 52.6667ZM28.6656 47.2671C32.3107 47.2671 35.2656 44.3122 35.2656 40.6671C35.2656 37.022 32.3107 34.0671 28.6656 34.0671C25.0206 34.0671 22.0656 37.022 22.0656 40.6671C22.0656 44.3122 25.0206 47.2671 28.6656 47.2671Z" fill="#313638"/>
</mask>
<g mask="url(#mask0_45_137)">
<rect x="28.6658" y="40.667" width="12" height="12" fill="#313638"/>
</g>
<mask id="mask1_45_137" style="mask-type:alpha" maskUnits="userSpaceOnUse" x="35" y="28" width="25" height="25">
<path fill-rule="evenodd" clip-rule="evenodd" d="M47.3333 28.6668C40.7058 28.6668 35.3333 34.0394 35.3333 40.6668C35.3333 47.2942 40.7058 52.6668 47.3333 52.6668C53.9607 52.6668 59.3333 47.2942 59.3333 40.6668C59.3333 34.0394 53.9607 28.6668 47.3333 28.6668ZM47.3334 34.0669C43.6883 34.0669 40.7334 37.0219 40.7334 40.6669C40.7334 44.312 43.6883 47.2669 47.3334 47.2669C50.9785 47.2669 53.9334 44.312 53.9334 40.6669C53.9334 37.0219 50.9785 34.0669 47.3334 34.0669Z" fill="#313638"/>
</mask>
<g mask="url(#mask1_45_137)">
<rect x="47.3333" y="40.667" width="12" height="12" transform="rotate(-180 47.3333 40.667)" fill="#313638"/>
</g>
</svg>
